PathFileType	4	(X/Y/Z)	/Users/itak/Documents/Research/Walk-IL/dataset/trc/00058_00006.trc
DataRate	CameraRate	NumFrames	NumMarkers	Units	OrigDataRate	OrigDataStartFrame	OrigNumFrames
100.000000	100.000000	4	53	mm	100.000000	615	821
Frame#	Time	RPSI			LPSI			L3			STRN			T10			C7			CLAV			RBAK			LBAK			LSHO			LUPA			LAEL			LAOL			LWTS			LWPS			LFRA			LIFD			LHPS			LHTS			RSHO			RUPA			RAEL			RAOL			RWTS			RWPS			RFRA			RIFD			RHTS			RHPS			RBHD			LFHD			RFHD			LBHD			LHIP			RHIP			RASI			LASI			LKNE			LTHI			LANK			LTIP			LTOE			LMT1			LMT5			LHEE			RKNE			RTHI			RANK			RTIP			RTOE			RMT1			RMT5			RHEE			
		X1	Y1	Z1	X2	Y2	Z2	X3	Y3	Z3	X4	Y4	Z4	X5	Y5	Z5	X6	Y6	Z6	X7	Y7	Z7	X8	Y8	Z8	X9	Y9	Z9	X10	Y10	Z10	X11	Y11	Z11	X12	Y12	Z12	X13	Y13	Z13	X14	Y14	Z14	X15	Y15	Z15	X16	Y16	Z16	X17	Y17	Z17	X18	Y18	Z18	X19	Y19	Z19	X20	Y20	Z20	X21	Y21	Z21	X22	Y22	Z22	X23	Y23	Z23	X24	Y24	Z24	X25	Y25	Z25	X26	Y26	Z26	X27	Y27	Z27	X28	Y28	Z28	X29	Y29	Z29	X30	Y30	Z30	X31	Y31	Z31	X32	Y32	Z32	X33	Y33	Z33	X34	Y34	Z34	X35	Y35	Z35	X36	Y36	Z36	X37	Y37	Z37	X38	Y38	Z38	X39	Y39	Z39	X40	Y40	Z40	X41	Y41	Z41	X42	Y42	Z42	X43	Y43	Z43	X44	Y44	Z44	X45	Y45	Z45	X46	Y46	Z46	X47	Y47	Z47	X48	Y48	Z48	X49	Y49	Z49	X50	Y50	Z50	X51	Y51	Z51	X52	Y52	Z52	X53	Y53	Z53	

616	6.15	-637.7313842773438	1011.602905273438	-228.5077819824219	-482.5900268554688	990.2069702148438	-148.7899932861328	-559.6698608398438	1058.9580078125	-188.3137359619141	-688.2805786132812	1252.373901367188	37.67451477050781	-555.4331665039062	1193.633178710938	-200.3947906494141	-593.1138916015625	1459.507690429688	-145.0473937988281	-624.6307373046875	1320.562255859375	-236.4521942138672	-674.184326171875	1367.54443359375	12.94856262207031	-493.0527954101562	1425.78125	-120.1886978149414	-475.2348327636719	1427.976196289062	4.381199836730957	-388.6604614257812	1308.969482421875	15.43306255340576	-357.1629028320312	1094.518798828125	22.14170265197754	-404.7219848632812	1085.551391601562	-72.69807434082031	-432.8576965332031	844.017333984375	51.89407348632812	-353.7318115234375	841.4374389648438	23.71064376831055	-349.50341796875	983.7778930664062	32.61176300048828	-441.0082702636719	656.53271484375	35.40671539306641	-366.25146484375	756.2426147460938	40.29429244995117	-433.6758728027344	758.2772216796875	60.99650192260742	-775.3798828125	1417.537353515625	-170.8520202636719	-823.7772827148438	1349.85107421875	-212.4697265625	-852.9304809570312	1092.134033203125	-268.2745666503906	-778.524658203125	1063.53125	-207.5436706542969	-907.9241333007812	852.5023193359375	-109.7783126831055	-915.0543823242188	830.1324462890625	-194.3494720458984	-872.6238403320312	1010.253234863281	-259.0901489257812	-914.3169555664062	663.3603515625	-81.75749969482422	-926.4436645507812	751.7012329101562	-82.89437103271484	-941.3468017578125	745.7661743164062	-158.0959320068359	-599.4381103515625	1635.974609375	-120.3172073364258	-721.5596313476562	1665.770629882812	55.85327911376953	-595.8734741210938	1670.685668945312	55.03426742553711	-736.742919921875	1622.918579101562	-110.2960357666016	-462.0870971679688	927.4254760742188	-11.54601001739502	-737.3047485351562	943.7531127929688	-215.2796478271484	-786.8299560546875	950.385009765625	-98.84616088867188	-567.23095703125	941.1111450195312	52.40299987792969	-639.7827758789062	509.6768493652344	136.2846069335938	-556.1011962890625	623.227783203125	92.28838348388672	-692.4483642578125	47.53078460693359	158.5387573242188	-652.6658935546875	260.6294250488281	147.6124725341797	-771.7769165039062	96.91909027099609	337.9544372558594	-801.9491577148438	80.13649749755859	277.1702880859375	-692.9292602539062	64.87584686279297	264.5619201660156	-745.9775390625	36.55202484130859	84.12846374511719	-722.6198120117188	503.0366516113281	-217.099853515625	-773.6661376953125	767.0503540039062	-174.7706909179688	-552.1073608398438	84.08616638183594	-436.5505065917969	-688.1657104492188	396.0559997558594	-280.8128662109375	-675.073486328125	38.7345085144043	-271.6966552734375	-608.4285278320312	52.67282104492188	-280.0901184082031	-648.9742431640625	46.15591812133789	-370.356201171875	-482.900634765625	107.0188522338867	-424.2461547851562	
617	6.16	-643.0875854492188	1012.019958496094	-218.0502624511719	-487.09814453125	990.9600830078125	-139.8032531738281	-564.5487670898438	1059.057250976562	-178.4052581787109	-690.28955078125	1253.486450195312	48.02212142944336	-559.8197631835938	1193.695556640625	-191.1779937744141	-596.3695068359375	1459.748168945312	-136.2676849365234	-628.8386840820312	1320.678833007812	-227.0433349609375	-676.1753540039062	1368.55078125	22.75884246826172	-496.1270446777344	1425.951416015625	-112.3116455078125	-477.0789184570312	1428.568725585938	12.07097434997559	-390.5987854003906	1309.350341796875	22.64411544799805	-359.7582702636719	1094.731323242188	29.42617797851562	-408.4107971191406	1085.634399414062	-64.87285614013672	-436.0621643066406	844.5238647460938	60.21822357177734	-357.1774597167969	841.6243896484375	31.36164093017578	-352.4163513183594	983.9796142578125	39.97235488891602	-444.9774780273438	657.01708984375	44.03104400634766	-369.8456726074219	756.47509765625	48.13955307006836	-437.045166015625	758.7623291015625	69.44774627685547	-778.847900390625	1418.10205078125	-160.3815460205078	-827.5429077148438	1350.272216796875	-201.4080352783203	-856.8601684570312	1092.88427734375	-256.9802856445312	-781.9489135742188	1064.2265625	-196.7965545654297	-910.260009765625	852.593017578125	-98.76999664306641	-918.0205688476562	830.5426635742188	-183.3964233398438	-876.3750610351562	1010.935241699219	-247.8428802490234	-916.0515747070312	663.3511962890625	-71.44121551513672	-928.3182983398438	751.6459350585938	-72.10615539550781	-943.8484497070312	745.9678344726562	-147.2446899414062	-602.089111328125	1636.499877929688	-112.1551666259766	-722.9948120117188	1667.013305664062	64.74481964111328	-597.3333129882812	1671.84033203125	63.02225875854492	-739.3673095703125	1623.603149414062	-101.1537475585938	-465.5627136230469	927.9501953125	-2.95410418510437	-742.6393432617188	944.048095703125	-204.156982421875	-790.9718627929688	950.763427734375	-87.19969940185547	-570.0802612304688	941.7214965820312	62.10499572753906	-643.52001953125	509.3120727539062	143.5213165283203	-559.5474243164062	623.1258544921875	100.0405807495117	-693.8591918945312	47.50942993164062	160.3933410644531	-656.154052734375	260.1826782226562	153.3330383300781	-776.2322387695312	90.10139465332031	340.6819152832031	-805.1647338867188	74.56095123291016	279.0185546875	-695.7119140625	62.2823371887207	266.8684997558594	-746.8015747070312	37.53632736206055	85.33603668212891	-729.6616821289062	503.1449584960938	-205.9052276611328	-778.8959350585938	767.337158203125	-163.3271789550781	-555.9459228515625	89.96369934082031	-435.3919677734375	-694.913330078125	397.4715576171875	-271.8764343261719	-674.8868408203125	38.7767448425293	-271.8131103515625	-609.489501953125	53.50819778442383	-279.6799926757812	-650.6851196289062	46.82473754882812	-369.6515808105469	-487.5833740234375	114.8100738525391	-422.5187683105469	
618	6.17	-648.38916015625	1012.608215332031	-207.4283905029297	-491.5228881835938	991.9651489257812	-130.8098907470703	-569.4562377929688	1059.331420898438	-168.2426910400391	-692.2379150390625	1254.82958984375	58.4683723449707	-564.2321166992188	1193.931030273438	-181.7752380371094	-599.5912475585938	1460.168212890625	-127.4294967651367	-633.0001831054688	1320.949584960938	-217.5220794677734	-678.1290893554688	1369.772583007812	32.63217544555664	-499.1836242675781	1426.317749023438	-104.3546371459961	-478.9197387695312	1429.39208984375	19.81855773925781	-392.5032348632812	1309.991577148438	29.96634864807129	-362.3266296386719	1095.2080078125	36.87411499023438	-411.8457336425781	1086.083984375	-57.01958465576172	-439.1837463378906	845.2925415039062	68.76953125	-360.5390930175781	842.0772705078125	39.24136352539062	-355.2703857421875	984.454833984375	47.52733612060547	-448.8597106933594	657.7469482421875	52.9004020690918	-373.3415222167969	756.9588012695312	56.20951843261719	-440.3067932128906	759.49658203125	78.13786315917969	-782.2548828125	1418.85546875	-149.8533325195312	-831.2321166992188	1350.907958984375	-190.3185272216797	-860.617919921875	1093.833374023438	-245.6852874755859	-785.2767333984375	1065.128662109375	-186.0055847167969	-912.4248657226562	852.84033203125	-87.86222839355469	-920.7973022460938	831.1414184570312	-172.5420227050781	-879.9553833007812	1011.835571289062	-236.6222534179688	-917.6085815429688	663.4896850585938	-61.30875778198242	-930.047119140625	751.7395629882812	-61.46939849853516	-946.16748046875	746.34130859375	-136.5343780517578	-604.6929931640625	1637.21826171875	-103.9581832885742	-724.3780517578125	1668.456787109375	73.65604400634766	-598.730712890625	1673.18359375	71.03208923339844	-741.9275512695312	1624.495971679688	-91.9761962890625	-468.8709106445312	928.6918334960938	5.625019073486328	-747.9547119140625	944.475830078125	-192.8378601074219	-794.9281005859375	951.3346557617188	-75.31352996826172	-572.6861572265625	942.525390625	71.87007141113281	-647.42626953125	509.18994140625	150.8029327392578	-562.92529296875	623.182373046875	107.6726989746094	-695.2328491210938	47.6635627746582	162.5136260986328	-659.6881103515625	260.0141906738281	159.3001708984375	-781.2271728515625	83.58585357666016	343.1593627929688	-808.6844482421875	69.37445831298828	280.5465698242188	-698.8414916992188	59.96828460693359	269.3987426757812	-747.3394165039062	38.70549011230469	86.64029693603516	-737.332763671875	503.2613525390625	-193.8925323486328	-784.1895751953125	767.7586669921875	-151.4779968261719	-560.496337890625	96.43804931640625	-433.8133850097656	-702.3599243164062	398.9797973632812	-262.1245422363281	-674.7318725585938	38.78057479858398	-271.9645385742188	-610.7691650390625	54.44809722900391	-279.1317749023438	-652.6864624023438	47.59539413452148	-368.7630004882812	-493.1312255859375	123.2797927856445	-420.2079162597656	
619	6.18	-653.6280517578125	1013.348571777344	-196.7105407714844	-495.8580627441406	993.1597290039062	-121.8824844360352	-574.3806762695312	1059.755249023438	-157.9274749755859	-694.1148071289062	1256.36328125	68.98420715332031	-568.6712036132812	1194.313842773438	-172.2603454589844	-602.7841796875	1460.735595703125	-118.5483322143555	-637.1475219726562	1321.3515625	-207.9127197265625	-680.0398559570312	1371.171264648438	42.54521560668945	-502.220703125	1426.854736328125	-96.34004211425781	-480.76611328125	1430.416137695312	27.60391426086426	-394.3817749023438	1310.870239257812	37.38115310668945	-364.8736877441406	1095.929443359375	44.46647644042969	-415.0578308105469	1086.869995117188	-49.12059020996094	-442.2284240722656	846.3074340820312	77.55126190185547	-363.8153076171875	842.7864379882812	47.36263275146484	-358.0709228515625	985.1866455078125	55.2740592956543	-452.6321411132812	658.7103271484375	62.01457214355469	-376.7344055175781	757.6902465820312	64.52100372314453	-443.4666137695312	760.4676513671875	87.06370544433594	-785.6109008789062	1419.780151367188	-139.2748260498047	-834.8583984375	1351.749755859375	-179.2059173583984	-864.2069702148438	1094.954833984375	-234.4091949462891	-788.5095825195312	1066.23828125	-175.1897583007812	-914.4462280273438	853.2427978515625	-77.06418609619141	-923.4041748046875	831.9241943359375	-161.7925872802734	-883.3710327148438	1012.93505859375	-225.4485626220703	-919.0055541992188	663.7709350585938	-51.36175155639648	-931.6481323242188	751.9777221679688	-50.99479675292969	-948.3203735351562	746.8818969726562	-125.9711303710938	-607.25927734375	1638.08349609375	-95.74901580810547	-725.7095947265625	1670.05712890625	82.56891632080078	-600.06298828125	1674.671997070312	79.04818725585938	-744.4285888671875	1625.545532226562	-82.78093719482422	-471.9725036621094	929.5990600585938	14.13883972167969	-753.2530517578125	945.0316772460938	-181.3662872314453	-798.6683959960938	952.0960693359375	-63.22412109375	-574.9951782226562	943.4907836914062	81.64125823974609	-651.4432373046875	509.2920837402344	158.1534423828125	-566.2723388671875	623.4373168945312	115.2668762207031	-696.4869384765625	47.89286804199219	164.7034454345703	-663.13134765625	260.0028381347656	165.2743988037109	-786.3480224609375	77.37298583984375	345.3015441894531	-812.2373046875	64.58847045898438	281.7350158691406	-702.0582275390625	57.85647583007812	271.9617004394531	-747.6332397460938	39.92545318603516	87.93623352050781	-745.6436767578125	503.3711853027344	-181.0763854980469	-789.5472412109375	768.2981567382812	-139.2574005126953	-565.8659057617188	103.5419998168945	-431.7543334960938	-710.5347900390625	400.5480346679688	-251.5337219238281	-674.6635131835938	38.71656799316406	-272.1241455078125	-612.3274536132812	55.52396011352539	-278.4284362792969	-655.0408325195312	48.54776763916016	-367.668212890625	-499.6419982910156	132.4151916503906	-417.28076171875	
